<svg width="196" height="120" viewBox="0 0 196 120" fill="none" xmlns="http://www.w3.org/2000/svg">
<path d="M135 24.65V1H1V87H135V69" stroke="black"/>
<path d="M61 57.375V34H195V119H61V96.6875" stroke="black"/>
<path d="M118.406 84V59.3906H120.27V82.207H131.625V84H118.406ZM133.84 63.1875C133.84 62.6719 134.098 62.3086 134.613 62.0977C134.754 62.0508 134.895 62.0273 135.035 62.0273C135.574 62.0273 135.938 62.2852 136.125 62.8008C136.172 62.9414 136.195 63.0703 136.195 63.1875C136.195 63.7266 135.938 64.0898 135.422 64.2773C135.281 64.3242 135.152 64.3477 135.035 64.3477C134.496 64.3477 134.121 64.1016 133.91 63.6094C133.863 63.4688 133.84 63.3281 133.84 63.1875ZM134.121 84V65.7539H135.949V84H134.121ZM139.043 84V70.5703C139.043 69.4453 139.547 68.3555 140.555 67.3008C141.75 66.1055 143.215 65.5078 144.949 65.5078V67.3359C143.66 67.3359 142.57 67.8398 141.68 68.8477C141.141 69.4805 140.871 70.125 140.871 70.7812V84H139.043ZM146.461 67.3359V65.5078C148.57 65.5078 150.234 66.375 151.453 68.1094C152.062 68.9766 152.367 69.7969 152.367 70.5703V84H150.504V70.7812C150.504 70.0312 150.117 69.2812 149.344 68.5312C148.523 67.7344 147.562 67.3359 146.461 67.3359ZM155.109 84V59.3906H156.973V84H155.109ZM157.781 74.8242L166.781 65.6836H169.277L160.277 74.8242L169.277 84H166.781L157.781 74.8242Z" fill="black"/>
<path d="M11.4062 83V58.3906H13.2695V81.207H24.625V83H11.4062ZM26.7344 77.9727V69.5703C26.7578 68.4688 27.2734 67.4141 28.2812 66.4062C29.4297 65.2109 30.8477 64.6133 32.5352 64.6133V66.3359C31.1992 66.3359 30.0977 66.9336 29.2305 68.1289C28.7852 68.7383 28.5625 69.3125 28.5625 69.8516V72.6289H38.125V69.8516C38.125 68.6797 37.5508 67.7305 36.4023 67.0039C35.6758 66.5352 34.9258 66.3008 34.1523 66.3008V64.6133C35.7227 64.6133 37.1289 65.1875 38.3711 66.3359C39.4023 67.3203 39.9297 68.3867 39.9531 69.5352V74.3867H28.5625V77.9727C28.5625 78.6992 29.0078 79.4492 29.8984 80.2227C30.7422 80.9258 31.6328 81.2773 32.5703 81.2773V83C30.5078 83 28.8789 82.1562 27.6836 80.4688C27.0508 79.5781 26.7344 78.7461 26.7344 77.9727ZM34.1523 83V81.1719C35.6758 81.1719 36.8711 80.5273 37.7383 79.2383C37.9961 78.8398 38.1719 78.4648 38.2656 78.1133L39.9883 78.7109C39.4727 80.4219 38.4297 81.6523 36.8594 82.4023C36.0156 82.8008 35.1133 83 34.1523 83ZM42.7656 77.9727C42.7656 79.2383 43.2461 80.375 44.207 81.3828C45.2852 82.4609 46.6914 83 48.4258 83V81.2422C47.043 81.2422 45.9531 80.668 45.1562 79.5195C44.7812 78.9805 44.5938 78.4648 44.5938 77.9727V69.8164C44.5938 68.8789 45.0508 68.0352 45.9648 67.2852C46.7148 66.6758 47.5469 66.3711 48.4609 66.3711V64.6133C46.3047 64.6133 44.6758 65.457 43.5742 67.1445C43.0352 68.0117 42.7656 68.8672 42.7656 69.7109V77.9727ZM50.0078 66.4062C51.2031 66.4062 52.1406 66.8984 52.8203 67.8828C53.1953 68.4219 53.418 69.043 53.4883 69.7461V70.3789L55.2461 69.7461C55.2461 68.082 54.5664 66.7344 53.207 65.7031C52.2461 64.9766 51.1797 64.6133 50.0078 64.6133V66.4062ZM49.9727 83.0352C51.6367 83.0352 53.0664 82.4141 54.2617 81.1719C55.1992 80.1875 55.6562 79.0859 55.6328 77.8672L53.9102 77.1992C53.9102 77.2461 53.8984 77.3516 53.875 77.5156C53.875 77.6562 53.875 77.75 53.875 77.7969C53.7109 79.1328 53.0195 80.1406 51.8008 80.8203C51.2148 81.125 50.6055 81.2773 49.9727 81.2773V83.0352ZM57.3203 66.7578V64.9648H59.5703V58.3203H61.3984V64.9648H63.6484V66.7578H61.3984V77.3398C61.3984 79.2852 62.0547 80.4922 63.3672 80.9609C63.9062 81.125 64.5273 81.207 65.2305 81.207H65.3711L65.793 83H65.0547C62.2188 82.9766 60.4961 81.875 59.8867 79.6953C59.6758 78.9453 59.5703 78.0547 59.5703 77.0234V66.7578H57.3203ZM67.1641 78.1133V64.6836H68.9922V77.9023C68.9922 78.8164 69.4844 79.6484 70.4688 80.3984C71.2422 81.0312 72.1094 81.3477 73.0703 81.3477V83.1758C70.8672 83.1758 69.1914 82.3203 68.043 80.6094C67.457 79.7422 67.1641 78.9102 67.1641 78.1133ZM74.582 83.1758V81.3477C76.0352 81.3477 77.1719 80.7734 77.9922 79.625C78.4141 79.0391 78.625 78.4648 78.625 77.9023V64.6836H80.4883V78.1133C80.4883 79.1914 79.9961 80.2461 79.0117 81.2773C77.8164 82.5195 76.3398 83.1523 74.582 83.1758ZM83.3008 83V64.6133H85.1289V67.4961C85.5977 66.5117 86.3828 65.7383 87.4844 65.1758C88.2109 64.8008 88.9609 64.6133 89.7344 64.6133H89.9453L89.4883 66.3711C88.3164 66.3711 87.2617 67.0742 86.3242 68.4805C85.5508 69.6523 85.1641 70.8828 85.1641 72.1719V83H83.3008ZM92.0195 77.9727V69.5703C92.043 68.4688 92.5586 67.4141 93.5664 66.4062C94.7148 65.2109 96.1328 64.6133 97.8203 64.6133V66.3359C96.4844 66.3359 95.3828 66.9336 94.5156 68.1289C94.0703 68.7383 93.8477 69.3125 93.8477 69.8516V72.6289H103.41V69.8516C103.41 68.6797 102.836 67.7305 101.688 67.0039C100.961 66.5352 100.211 66.3008 99.4375 66.3008V64.6133C101.008 64.6133 102.414 65.1875 103.656 66.3359C104.688 67.3203 105.215 68.3867 105.238 69.5352V74.3867H93.8477V77.9727C93.8477 78.6992 94.293 79.4492 95.1836 80.2227C96.0273 80.9258 96.918 81.2773 97.8555 81.2773V83C95.793 83 94.1641 82.1562 92.9688 80.4688C92.3359 79.5781 92.0195 78.7461 92.0195 77.9727ZM99.4375 83V81.1719C100.961 81.1719 102.156 80.5273 103.023 79.2383C103.281 78.8398 103.457 78.4648 103.551 78.1133L105.273 78.7109C104.758 80.4219 103.715 81.6523 102.145 82.4023C101.301 82.8008 100.398 83 99.4375 83Z" fill="black"/>
</svg>
